# xmcd CD database file
#
# Track frame offsets:
#	150
#	11812
#	26007
#	35507
#	48302
#	61540
#	75130
#	87697
#	100455
#	111370
#	124570
#	139597
#	151697
#	163302
#	175975
#	190682
#	204709
#	219042
#	229350
#	243287
#	257732
#	271425
#	283607
#	294112
#	303182
#
# Disc length: 4192 seconds
#
# Revision: 0
# Processed by: cddbd v1.4PL0 Copyright (c) Steve Scherf et al.
# Submitted via: CDex 1.50beta9
#
DISCID=53105e19
DTITLE=Amalia Rodrigues - A Dama do Fado
DYEAR=1900
DGENRE=Fado
TTITLE0=Perseguição
TTITLE1=As Penas
TTITLE2=A Tendinha
TTITLE3=Sei Finalmente
TTITLE4=Fado do Ciúme
TTITLE5=Olhos Verdes
TTITLE6=Mouraria
TTITLE7=Carmencita
TTITLE8=Los Piconeros
TTITLE9=Passei por Voce
TTITLE10=Duas Luzes
TTITLE11=Troca de Olhares
TTITLE12=Ai Mouraria
TTITLE13=Sardinheiras
TTITLE14=Maria da Cruz
TTITLE15=Saudades de Ti
TTITLE16=Fado da Saudade
TTITLE17=Da-me um Beijo
TTITLE18=Sabe-se Lá
TTITLE19=Confesso
TTITLE20=Lá porque tens Cinco Pedras
TTITLE21=A minha Canção é Saudade
TTITLE22=Aquela Rua
TTITLE23=Cabeça-de-vento
TTITLE24=Tentação
EXTD=
EXTT0=
EXTT1=
EXTT2=
EXTT3=
EXTT4=
EXTT5=
EXTT6=
EXTT7=
EXTT8=
EXTT9=
EXTT10=
EXTT11=
EXTT12=
EXTT13=
EXTT14=
EXTT15=
EXTT16=
EXTT17=
EXTT18=
EXTT19=
EXTT20=
EXTT21=
EXTT22=
EXTT23=
EXTT24=
PLAYORDER=
